PathFileType	4	(X/Y/Z)	C:/Users/opensim2020/Desktop/walking_exp_matlab/subject02_walking06_static.trc	
DataRate	CameraRate	NumFrames	NumMarkers	Units	OrigDataRate	OrigDataStartFrame	OrigNumFrames	
100.00	100.00	9	41	mm	100.00	252	287	
Frame#	Time	LFHD			RFHD			LBHD			RBHD			C7			T10			CLAV			STRN			RBAK			LSHO			LUPA			LELB			LFRM			LWRA			LWRB			LFIN			RSHO			RUPA			RELB			RFRM			RWRA			RWRB			RFIN			LASI			RASI			LPSI			RPSI			LTHI			LKNE			LTIB			LANK			LHEE			LTOE			RTHI			RKNE			RTIB			RANK			RHEE			RTOE			*39			*40			
		X1	Y1	Z1	X2	Y2	Z2	X3	Y3	Z3	X4	Y4	Z4	X5	Y5	Z5	X6	Y6	Z6	X7	Y7	Z7	X8	Y8	Z8	X9	Y9	Z9	X10	Y10	Z10	X11	Y11	Z11	X12	Y12	Z12	X13	Y13	Z13	X14	Y14	Z14	X15	Y15	Z15	X16	Y16	Z16	X17	Y17	Z17	X18	Y18	Z18	X19	Y19	Z19	X20	Y20	Z20	X21	Y21	Z21	X22	Y22	Z22	X23	Y23	Z23	X24	Y24	Z24	X25	Y25	Z25	X26	Y26	Z26	X27	Y27	Z27	X28	Y28	Z28	X29	Y29	Z29	X30	Y30	Z30	X31	Y31	Z31	X32	Y32	Z32	X33	Y33	Z33	X34	Y34	Z34	X35	Y35	Z35	X36	Y36	Z36	X37	Y37	Z37	X38	Y38	Z38	X39	Y39	Z39	X40	Y40	Z40	X41	Y41	Z41	

252	2.510	-27.88176	-695.94012	1747.99500	-17.73013	-553.66852	1730.30212	97.32176	-714.89532	1665.63477	120.13561	-574.36792	1645.60229	146.51823	-640.52545	1522.17432	187.38525	-638.69568	1247.84851	-2.14020	-649.75311	1470.31262	-65.63039	-639.32135	1301.80078	186.73862	-569.09570	1349.48706	55.90158	-817.06519	1511.61304	52.02314	-924.85681	1327.49915	56.35464	-954.97723	1186.62561	31.32732	-961.60901	1053.26587	-27.48808	-912.64349	936.52020	9.96503	-955.14807	932.37427	-18.10006	-952.48462	872.51471	52.00192	-458.42786	1506.08765	55.69630	-347.07037	1332.41321	32.59731	-316.12378	1186.57849	-7.45174	-307.89215	1069.22644	-51.88288	-343.09778	945.51056	-20.82225	-296.69199	939.37384	-61.98317	-307.95050	880.98224	-43.54529	-758.77319	993.81915	-33.80760	-507.95004	985.96832	167.95976	-690.01172	1027.63684	176.98579	-575.52386	1028.91553	31.41593	-838.72076	685.81451	66.82774	-828.08575	484.08209	123.90002	-851.95245	299.71411	116.07711	-847.21045	72.54678	151.61905	-801.30133	40.98365	-42.86286	-860.30359	30.98557	53.96565	-415.63614	682.23657	55.08987	-431.63315	471.01187	108.94386	-404.38483	291.88583	133.81174	-415.50748	97.13195	166.50861	-465.37180	37.42554	-15.31888	-379.85632	38.03709	84.72816	-615.58032	1808.42273	-3360.24854	2844.98169	1034.04504 
253	2.520	-28.02889	-695.85071	1747.88916	-17.98309	-553.51831	1730.27832	97.23111	-714.68634	1665.55627	119.92877	-574.07117	1645.60364	146.42496	-640.28052	1522.17188	187.37427	-638.51251	1247.84827	-2.19525	-649.53021	1470.21558	-65.65529	-639.15680	1301.68311	186.67627	-568.89801	1349.44690	55.86164	-816.80365	1511.49475	52.03666	-924.55005	1327.44446	56.35655	-954.71545	1186.56665	31.24818	-961.37146	1053.22473	-27.71786	-912.44257	936.52112	9.67681	-954.66364	932.24731	-18.27672	-952.29590	872.51111	51.86213	-458.19916	1505.97986	55.64980	-346.91605	1332.16870	32.47030	-316.00073	1186.41028	-7.52966	-307.87778	1069.06323	-52.01374	-343.09958	945.35779	-20.93635	-296.47714	939.38049	-62.08330	-307.95181	880.77637	-43.56847	-758.72693	993.82263	-33.86448	-507.86572	985.95526	167.94519	-689.93365	1027.58948	176.97891	-575.48779	1028.84460	31.36256	-838.67194	685.80573	66.79182	-828.04846	484.08322	123.89197	-851.92755	299.72412	116.07096	-847.23334	72.56474	151.61397	-801.28125	41.00334	-42.86391	-860.28375	30.97154	54.13245	-415.11810	682.35541	54.96064	-431.56293	471.03241	108.83720	-404.38898	291.87625	133.82352	-415.51736	97.11904	166.46877	-465.41217	37.36480	-15.31291	-379.84457	38.04245	84.51659	-615.39282	1808.40771	-3360.17993	2845.06030	1033.88953 
254	2.530	-28.11537	-695.45233	1747.70325	-18.22038	-553.37457	1730.24414	97.10836	-714.40845	1665.51904	119.77883	-573.78973	1645.63281	146.32274	-640.00269	1522.14587	187.33919	-638.35889	1247.83142	-2.25227	-649.32990	1470.11768	-65.67986	-639.00049	1301.57532	186.61484	-568.65247	1349.41101	55.80645	-816.56409	1511.46667	52.01350	-924.27197	1327.35791	56.33649	-954.46307	1186.50964	31.16343	-961.10962	1053.16785	-27.90182	-912.21472	936.51453	9.49885	-954.41974	932.26526	-18.47238	-952.10052	872.51202	51.79055	-457.96210	1505.81897	55.56152	-346.76306	1331.99438	32.39100	-315.89792	1186.20850	-7.64835	-307.80069	1068.85425	-52.13108	-343.04065	945.17560	-21.03623	-296.65396	938.95551	-62.18607	-307.96124	880.62726	-43.58848	-758.66803	993.81897	-33.96681	-507.78790	985.91736	167.92538	-689.83832	1027.52710	176.96109	-575.39331	1028.79211	31.31039	-838.60223	685.81000	66.75034	-828.03052	484.07401	123.89393	-851.89832	299.73239	116.08144	-847.23737	72.53378	151.63554	-801.32013	40.96534	-42.87966	-860.32892	30.99126	54.06046	-415.07401	682.32001	54.89117	-431.53815	470.99213	108.75605	-404.33563	291.88242	133.81435	-415.48859	97.11713	166.54132	-465.42993	37.41299	-15.30732	-379.86160	38.01616	84.28522	-615.44788	1808.42529	-3360.19385	2845.11328	1033.99182 
255	2.540	-28.32392	-695.47540	1747.69482	-18.46898	-553.20441	1730.19287	97.01032	-714.12683	1665.47742	119.59792	-573.53198	1645.60730	146.24542	-639.72479	1522.12610	187.30106	-638.16333	1247.80457	-2.31009	-649.07538	1470.05225	-65.67452	-638.81628	1301.46802	186.57343	-568.43878	1349.36914	55.75288	-816.33850	1511.45227	51.91386	-924.06250	1327.29333	56.31538	-954.19482	1186.46533	31.08207	-960.87262	1053.12915	-28.10117	-911.94904	936.51910	9.30844	-954.12201	932.21057	-18.66190	-952.01147	872.69556	51.70541	-457.64828	1505.70325	55.45773	-346.59149	1331.80457	32.27652	-315.75421	1186.03735	-7.62811	-307.57123	1068.91101	-52.23827	-342.97006	945.01740	-21.14895	-296.63062	938.75006	-62.28691	-307.90753	880.46051	-43.62714	-758.60632	993.83221	-34.05970	-507.70233	985.87579	167.95319	-689.75201	1027.49402	176.92633	-575.30518	1028.72278	31.26936	-838.81494	685.88556	66.73352	-828.01044	484.07785	123.99043	-851.94086	299.79895	116.07491	-847.24744	72.55230	151.62585	-801.31287	40.97760	-42.88296	-860.31903	30.96633	53.94545	-414.98987	682.28705	54.77469	-431.50464	470.92950	108.69894	-404.34781	291.84265	133.80525	-415.50143	97.12375	166.49149	-465.34982	37.32602	-15.30708	-379.88071	38.03395	84.03799	-614.82190	1808.39600	-3357.48682	2845.72607	1033.94202 
256	2.550	-28.48507	-695.28949	1747.58191	-18.69210	-553.00073	1730.10498	96.90954	-713.82623	1665.45264	119.34962	-573.20404	1645.62561	146.16158	-639.39642	1522.08948	187.23877	-637.96344	1247.78516	-2.36362	-648.82941	1469.99512	-65.67522	-638.63464	1301.38831	186.50218	-568.27063	1349.31238	55.71220	-816.09015	1511.51575	51.89442	-923.79700	1327.28259	56.29393	-953.93988	1186.44006	30.95937	-960.61395	1053.15295	-28.30291	-911.69269	936.54242	9.27121	-954.12842	932.33105	-18.84451	-951.54144	872.62457	51.48964	-457.45569	1505.55139	55.31078	-346.49551	1331.63110	32.21295	-315.61765	1185.84961	-7.87762	-307.57712	1068.53540	-52.32572	-342.90372	944.88293	-21.42411	-296.88577	938.48547	-62.33618	-307.86108	880.29089	-43.65336	-758.50964	993.84564	-34.15910	-507.61365	985.85046	167.89838	-689.61646	1027.47070	176.85435	-575.17993	1028.66919	31.25354	-838.71735	685.86572	66.70182	-827.93494	484.06454	123.92888	-851.80817	299.76236	116.08298	-847.21161	72.53674	151.60341	-801.27985	40.99965	-42.87408	-860.32068	30.95971	53.82487	-414.94736	682.25842	54.59321	-431.39359	470.93192	108.63203	-404.33075	291.82431	133.82808	-415.50562	97.10551	166.49432	-465.34567	37.31148	-15.31218	-379.84692	38.02603	83.79140	-614.59869	1808.40259	-3360.16138	2845.03638	1033.96594 
257	2.560	-28.66137	-695.05835	1747.48096	-18.94993	-552.76672	1730.04712	96.80446	-713.50293	1665.44373	119.19861	-572.83929	1645.68860	146.06677	-639.13257	1522.07397	187.18221	-637.76373	1247.75635	-2.41221	-648.59119	1469.94751	-65.70728	-638.46594	1301.31104	186.39507	-568.04291	1349.27283	55.67786	-815.83014	1511.48682	51.90021	-923.52594	1327.24500	56.26252	-953.62250	1186.42285	30.87369	-960.28113	1053.08655	-28.50797	-911.44843	936.62250	9.07851	-953.79132	932.31616	-19.16108	-951.30450	872.59308	51.45216	-457.08252	1505.47217	55.21381	-346.27023	1331.42444	32.10515	-315.47882	1185.69543	-7.98311	-307.42169	1068.35156	-52.36195	-342.81113	944.68622	-21.30163	-296.44055	938.41602	-62.47786	-307.77448	880.11847	-43.66516	-758.43323	993.85358	-34.24963	-507.50974	985.78448	167.90332	-689.48108	1027.45874	176.76959	-575.03284	1028.64490	31.25977	-838.65552	685.87225	66.66161	-827.90485	484.08026	123.89159	-851.78302	299.76132	116.07726	-847.21222	72.54491	151.61348	-801.29010	40.95492	-42.88076	-860.31158	30.94577	53.67162	-414.84576	682.24487	54.50811	-431.38834	470.89532	108.59129	-404.31540	291.80328	133.83667	-415.49695	97.10959	166.51729	-465.42511	37.37034	-15.29395	-379.87668	38.03587	83.56071	-614.43884	1808.38525	-3360.32129	2845.25244	1033.73010 
258	2.570	-28.83644	-694.82086	1747.40039	-19.24222	-552.51465	1729.99854	96.69501	-713.14258	1665.44666	119.04803	-572.48804	1645.72656	145.97421	-638.82831	1522.05029	187.10472	-637.55682	1247.75781	-2.46047	-648.35419	1469.90747	-65.76528	-638.30414	1301.25085	186.28444	-567.91937	1349.21069	55.63331	-815.54816	1511.48657	51.93103	-923.18182	1327.27368	56.22452	-953.34851	1186.43091	30.76960	-959.97150	1053.12317	-28.71509	-911.16815	936.70581	8.90717	-953.30334	932.21631	-19.31741	-950.91278	872.62500	51.36657	-456.82532	1505.36682	55.18411	-345.97852	1331.26624	31.98763	-315.26404	1185.54236	-8.08624	-307.24997	1068.21619	-52.44852	-342.68350	944.50836	-21.39331	-296.31262	938.27106	-62.55846	-307.69431	879.95679	-43.69966	-758.35309	993.84601	-34.39342	-507.41595	985.78137	167.86131	-689.32788	1027.44775	176.65761	-574.86182	1028.60596	31.24679	-838.62402	685.88275	66.62378	-827.85864	484.08398	123.90047	-851.75818	299.79099	116.07858	-847.21185	72.55056	151.59042	-801.32776	40.99433	-42.87506	-860.32758	30.96854	53.50484	-414.76361	682.24432	54.32267	-431.31067	470.89697	108.49648	-404.29227	291.80945	133.83493	-415.48376	97.11086	166.48338	-465.40100	37.34094	-15.31359	-379.88141	38.03441	83.26208	-614.14282	1808.38281	-3360.17993	2845.06030	1033.88879 
259	2.580	-29.03319	-694.55322	1747.32129	-19.48804	-552.23346	1729.93457	96.58785	-712.79681	1665.47925	118.83257	-572.15906	1645.72070	145.87137	-638.51025	1522.05457	187.03728	-637.35382	1247.75830	-2.51900	-648.10480	1469.86572	-65.81147	-638.11432	1301.22144	186.22411	-567.56592	1349.21204	55.62804	-815.25763	1511.52197	51.92540	-922.87109	1327.27954	56.21065	-953.04022	1186.44006	30.67940	-959.65088	1053.15637	-28.94774	-910.84290	936.79407	8.65551	-952.69690	932.17957	-19.56193	-950.67316	872.70233	51.25364	-456.50726	1505.27148	54.92473	-345.85919	1331.18481	31.86423	-315.07889	1185.40430	-8.16404	-307.08841	1068.05127	-52.48705	-342.55914	944.35516	-21.30932	-296.14886	938.31140	-62.63091	-307.60284	879.80444	-43.71840	-758.27173	993.85162	-34.54016	-507.33719	985.73926	167.80031	-689.17706	1027.41968	176.53343	-574.67358	1028.58435	31.25458	-838.53772	685.87384	66.59916	-827.78961	484.08801	123.83614	-851.67865	299.81036	116.07207	-847.18115	72.55444	151.58159	-801.29944	41.00207	-42.87086	-860.32318	30.95332	53.33241	-414.67456	682.22552	54.11107	-431.19919	470.88037	108.39911	-404.28912	291.78058	133.84366	-415.50616	97.13831	166.46851	-465.44211	37.37560	-15.28610	-379.88852	38.05047	82.97968	-613.80463	1808.40015	-3360.23120	2845.13232	1033.90564 
260	2.590	-29.15748	-694.10651	1747.13062	-19.76172	-551.93835	1729.82813	96.48512	-712.44659	1665.49683	118.62797	-571.77454	1645.72644	145.80150	-638.17560	1522.05676	186.97426	-637.10101	1247.74719	-2.56375	-647.80127	1469.82605	-65.86924	-637.94843	1301.18262	186.06958	-567.25879	1349.15784	55.58908	-814.97052	1511.62561	51.99373	-922.51013	1327.31433	56.18616	-952.72632	1186.45227	30.60992	-959.34369	1053.18323	-29.13642	-910.53571	936.90643	8.49776	-952.37274	932.26147	-19.65458	-950.19238	872.77875	51.10646	-456.19144	1505.17554	55.24820	-345.77435	1331.12378	31.72156	-314.81839	1185.26160	-8.26889	-306.91202	1067.89124	-52.63263	-342.41367	944.22351	-21.45211	-295.83691	938.04315	-62.73672	-307.43738	879.64532	-43.75449	-758.20770	993.86328	-34.68148	-507.25760	985.73053	167.74773	-688.99347	1027.43738	176.39490	-574.46448	1028.57349	31.24546	-838.50812	685.91803	66.58084	-827.73730	484.10440	123.88800	-851.64325	299.84482	116.07647	-847.18005	72.57495	151.58899	-801.28406	41.02783	-42.86257	-860.33282	30.99003	53.12125	-414.58136	682.20386	53.95415	-431.15994	470.88406	108.31303	-404.22263	291.78531	133.81055	-415.47763	97.14137	166.51376	-465.45288	37.37257	-15.29693	-379.87601	38.06488	82.63293	-613.32568	1808.42126	-3357.40137	2845.81201	1033.97644 
